<?xml version="1.0" encoding="UTF-8" standalone="no"?>
<!-- Created with Inkscape (http://www.inkscape.org/) -->

<svg
   xmlns:dc="http://purl.org/dc/elements/1.1/"
   xmlns:cc="http://creativecommons.org/ns#"
   xmlns:rdf="http://www.w3.org/1999/02/22-rdf-syntax-ns#"
   xmlns:svg="http://www.w3.org/2000/svg"
   xmlns="http://www.w3.org/2000/svg"
   xmlns:xlink="http://www.w3.org/1999/xlink"
   xmlns:sodipodi="http://sodipodi.sourceforge.net/DTD/sodipodi-0.dtd"
   xmlns:inkscape="http://www.inkscape.org/namespaces/inkscape"
   width="2130"
   height="1100"
   id="svg5155"
   version="1.1"
   inkscape:version="0.47 r22583"
   sodipodi:docname="city1 bg3.svg"
   inkscape:export-filename="/Users/devyn/Sandbox/luta_drafting/img/city1 bg3.png"
   inkscape:export-xdpi="90"
   inkscape:export-ydpi="90">
  <defs
     id="defs5157">
    <linearGradient
       id="linearGradient5779">
      <stop
         style="stop-color:#ececec;stop-opacity:1;"
         offset="0"
         id="stop5781" />
      <stop
         id="stop5787"
         offset="0.81395346"
         style="stop-color:#dadada;stop-opacity:1;" />
      <stop
         style="stop-color:#c9c9c9;stop-opacity:1;"
         offset="1"
         id="stop5783" />
    </linearGradient>
    <linearGradient
       id="linearGradient5767">
      <stop
         style="stop-color:#f6e4f2;stop-opacity:1;"
         offset="0"
         id="stop5769" />
      <stop
         style="stop-color:#ffffff;stop-opacity:1;"
         offset="1"
         id="stop5771" />
    </linearGradient>
    <inkscape:perspective
       sodipodi:type="inkscape:persp3d"
       inkscape:vp_x="0 : 526.18109 : 1"
       inkscape:vp_y="0 : 1000 : 0"
       inkscape:vp_z="744.09448 : 526.18109 : 1"
       inkscape:persp3d-origin="372.04724 : 350.78739 : 1"
       id="perspective5163" />
    <radialGradient
       inkscape:collect="always"
       xlink:href="#linearGradient5779"
       id="radialGradient5892"
       gradientUnits="userSpaceOnUse"
       gradientTransform="matrix(1,0,0,2.8531987,1536,-1839.3206)"
       cx="413.25"
       cy="966.80554"
       fx="413.25"
       fy="966.80554"
       r="41.25" />
    <radialGradient
       inkscape:collect="always"
       xlink:href="#linearGradient5779"
       id="radialGradient5896"
       gradientUnits="userSpaceOnUse"
       gradientTransform="matrix(1,0,0,2.8531987,896,-1839.3206)"
       cx="413.25"
       cy="966.80554"
       fx="413.25"
       fy="966.80554"
       r="41.25" />
    <radialGradient
       inkscape:collect="always"
       xlink:href="#linearGradient5779"
       id="radialGradient5900"
       gradientUnits="userSpaceOnUse"
       gradientTransform="matrix(1,0,0,2.8531987,416,-1839.3206)"
       cx="413.25"
       cy="966.80554"
       fx="413.25"
       fy="966.80554"
       r="41.25" />
    <linearGradient
       inkscape:collect="always"
       xlink:href="#linearGradient5767"
       id="linearGradient5911"
       gradientUnits="userSpaceOnUse"
       gradientTransform="translate(1690,0)"
       x1="356.6958"
       y1="766.86218"
       x2="562.96503"
       y2="894.35535" />
    <radialGradient
       inkscape:collect="always"
       xlink:href="#linearGradient5779"
       id="radialGradient5920"
       gradientUnits="userSpaceOnUse"
       gradientTransform="matrix(1,0,0,2.8531987,0,-1839.3206)"
       cx="413.25"
       cy="966.80554"
       fx="413.25"
       fy="966.80554"
       r="41.25" />
    <linearGradient
       inkscape:collect="always"
       xlink:href="#linearGradient5767"
       id="linearGradient5924"
       gradientUnits="userSpaceOnUse"
       gradientTransform="translate(624,0)"
       x1="356.6958"
       y1="766.86218"
       x2="562.96503"
       y2="894.35535" />
    <radialGradient
       inkscape:collect="always"
       xlink:href="#linearGradient5779"
       id="radialGradient5940"
       gradientUnits="userSpaceOnUse"
       gradientTransform="matrix(1,0,0,2.8531987,572,-1839.3206)"
       cx="413.25"
       cy="966.80554"
       fx="413.25"
       fy="966.80554"
       r="41.25" />
    <radialGradient
       inkscape:collect="always"
       xlink:href="#linearGradient5779"
       id="radialGradient5944"
       gradientUnits="userSpaceOnUse"
       gradientTransform="matrix(1,0,0,2.8531987,1182,-1839.3206)"
       cx="413.25"
       cy="966.80554"
       fx="413.25"
       fy="966.80554"
       r="41.25" />
  </defs>
  <sodipodi:namedview
     id="base"
     pagecolor="#ffffff"
     bordercolor="#666666"
     borderopacity="1.0"
     inkscape:pageopacity="0.0"
     inkscape:pageshadow="2"
     inkscape:zoom="1"
     inkscape:cx="800.8834"
     inkscape:cy="259.36817"
     inkscape:document-units="px"
     inkscape:current-layer="layer1"
     showgrid="false"
     inkscape:window-width="1280"
     inkscape:window-height="681"
     inkscape:window-x="0"
     inkscape:window-y="0"
     inkscape:window-maximized="0" />
  <metadata
     id="metadata5160">
    <rdf:RDF>
      <cc:Work
         rdf:about="">
        <dc:format>image/svg+xml</dc:format>
        <dc:type
           rdf:resource="http://purl.org/dc/dcmitype/StillImage" />
        <dc:title></dc:title>
      </cc:Work>
    </rdf:RDF>
  </metadata>
  <g
     inkscape:label="Layer 1"
     inkscape:groupmode="layer"
     id="layer1"
     transform="translate(0,47.637817)">
    <path
       style="fill:url(#radialGradient5944);fill-opacity:1;stroke:#000000;stroke-width:3;stroke-linecap:round;stroke-linejoin:round;stroke-miterlimit:4;stroke-opacity:1;stroke-dasharray:none"
       d="m 1584,1036.3622 0,-189.00002 -29.5,-29.5 c 0,0 45.75,-35.75 81.5,0 l -1,2.5 -29,26 0,190.00002 -22,0 z"
       id="path5860"
       sodipodi:nodetypes="cccc" />
    <path
       style="fill:#ffff00;stroke:#000000;stroke-width:3;stroke-linecap:round;stroke-linejoin:round;stroke-miterlimit:4;stroke-opacity:1;stroke-dasharray:none"
       d="m 1586.026,843.33691 14.3689,0 27.0798,-24.46328 c 0,0 -38.4091,-20.7189 -61.3441,0 l -1.1053,-0.49925 21.0007,24.96253 z"
       id="path5862" />
    <path
       style="fill:url(#radialGradient5940);fill-opacity:1;stroke:#000000;stroke-width:3;stroke-linecap:round;stroke-linejoin:round;stroke-miterlimit:4;stroke-opacity:1;stroke-dasharray:none"
       d="m 974,1036.3622 0,-189.00002 -29.5,-29.5 c 0,0 45.75,-35.75 81.5,0 l -1,2.5 -29,26 0,190.00002 -22,0 z"
       id="path5876"
       sodipodi:nodetypes="cccc" />
    <path
       style="fill:#ffff00;stroke:#000000;stroke-width:3;stroke-linecap:round;stroke-linejoin:round;stroke-miterlimit:4;stroke-opacity:1;stroke-dasharray:none"
       d="m 976.02597,843.33691 14.36891,0 27.07982,-24.46328 c 0,0 -38.40915,-20.7189 -61.34413,0 l -1.1053,-0.49925 21.0007,24.96253 z"
       id="path5878" />
    <path
       style="fill:#803300;stroke:#000000;stroke-width:3;stroke-linecap:round;stroke-linejoin:round;stroke-miterlimit:4;stroke-opacity:1;stroke-dasharray:none"
       d="m 84.34375,818.5625 c -5.84375,-2.08333 -11.6875,-4.16667 -17.53125,-6.25 17.462787,12.34838 28.377374,31.18258 41.26139,47.76991 C 87.031493,846.21999 68.908582,828.09288 46.420732,816.409 c 11.863917,5.54446 -1.861688,20.75329 -5.007402,17.10769 8.840578,0.11996 17.179705,3.92216 22.56627,10.93946 10.72555,9.63962 21.4511,19.27923 32.17665,28.91885 11.0398,29.04258 -1.231814,60.0031 3.29197,89.79518 0.53779,17.15363 -5.96367,34.82944 -18.906473,46.37292 -4.130186,12.5345 9.552219,20.5564 19.412566,24.2895 18.917947,8.0889 41.616107,1.0646 56.628757,-11.8246 10.30265,-13.1898 1.13372,-29.70102 -0.075,-44.18986 -3.08746,-13.9303 -18.94537,-21.1805 -20.09479,-36.05654 -2.44696,-15.30945 0.88357,-30.80044 1.81663,-46.07284 5.69174,-14.44118 24.10775,-12.89264 36.21647,-18.35281 11.72921,-4.84371 26.98562,-5.81791 34.16156,-17.66188 -1.33975,-4.54615 -11.01843,-2.3061 -4.71143,-10.11641 -3.94372,-9.83583 -20.60033,2.63515 -27.613,6.73335 -13.02208,6.70048 -25.68885,14.09706 -38.56476,21.08399 10.65443,-19.21001 22.03823,-38.01488 32.23421,-57.47842 -0.34089,-10.97998 -15.84629,1.34842 -19.08131,-8.02082 1.34806,12.54698 -6.09265,22.71695 -11.77763,33.00084 -4.68777,6.39439 -9.72108,23.568 -14.32526,23.6094 -7.30833,-15.02658 -14.61667,-30.05317 -21.92501,-45.07975 0.36458,-4.28125 0.72917,-8.5625 1.09375,-12.84375 -3.3125,3.6875 -6.625,7.375 -9.9375,11.0625 -1.53125,-5.07292 -3.0625,-10.14583 -4.59375,-15.21875 -1.6875,4.05208 -3.375,8.10417 -5.0625,12.15625 z m -40.375,-4.28125 c -0.168491,1.21444 0.912485,-0.80705 0,0 z"
       id="path5165" />
    <path
       style="fill:none;stroke:#deaa87;stroke-width:3;stroke-linecap:round;stroke-linejoin:round;stroke-miterlimit:4;stroke-opacity:1;stroke-dasharray:none"
       d="m 87,1027.3622 c 15.8723,-17.4123 29.2928,-41.31612 23.40088,-65.5884 C 97.386952,937.41778 102.17999,906.76469 117,884.36218"
       id="path5167" />
    <path
       style="fill:none;stroke:#deaa87;stroke-width:3;stroke-linecap:round;stroke-linejoin:round;stroke-miterlimit:4;stroke-opacity:1;stroke-dasharray:none"
       d="m 104.11659,1028.247 c 14.59543,-18.4957 26.28409,-43.29241 18.68298,-67.08485 -14.71109,-23.37011 -12.10747,-54.28623 1.08384,-77.68483"
       id="path5169" />
    <path
       style="fill:none;stroke:#deaa87;stroke-width:3;stroke-linecap:round;stroke-linejoin:round;stroke-miterlimit:4;stroke-opacity:1;stroke-dasharray:none"
       d="m 120.91517,1028.5743 c 13.8714,-19.0447 24.59513,-44.27378 16.08222,-67.75542 -15.6013,-22.78547 -14.19179,-53.77898 -1.91256,-77.66884"
       id="path5171" />
    <path
       style="fill:#008033;stroke:#000000;stroke-width:3;stroke-linecap:round;stroke-linejoin:round;stroke-miterlimit:4;stroke-opacity:1;stroke-dasharray:none"
       d="m 90.875,762.875 c -28.132212,0.62728 -54.706531,22.21289 -58.892661,50.45018 -7.338501,31.93253 -1.415909,65.64341 10.897655,95.56033 6.090122,13.83565 23.673999,18.47187 35.9184,9.73123 17.862364,-8.59496 31.766926,-23.17624 45.107856,-37.46049 34.29019,6.86703 69.14458,10.74694 104.0711,12.27072 15.81712,-5.14161 11.01613,-25.43014 7.11656,-37.37403 C 220.09168,808.88239 175.09569,776.39181 127.77874,766.90986 115.78995,763.52254 102.74578,763.43128 90.875,762.875 z m -34.125,12.25 c 1.379446,0.33486 -0.356911,0.48069 0,0 z m -0.125,0.21875 -0.19386,0.0364 0.19386,-0.0364 z m -12.78125,11.1875 c -0.02965,1.31782 -0.743418,-0.25901 0,0 z m -6.9375,10.71875 0.0025,-0.0545 -0.0025,0.0545 z m -1.53125,3.3125 -0.01065,-0.0417 0.01065,0.0417 z m -1.40625,3.84375 0.02005,0.0953 -0.02005,-0.0953 z M 29.9375,817.375 30.173189,817.4471 29.9375,817.375 z"
       id="path5173" />
    <path
       style="fill:#00aa44;stroke:#000000;stroke-width:3;stroke-linecap:round;stroke-linejoin:round;stroke-miterlimit:4;stroke-opacity:1;stroke-dasharray:none"
       d="m 90.3125,786.65625 c -20.320199,-0.17811 -42.872993,10.63036 -48.677349,31.46497 -9.772102,27.34369 -4.230053,58.23932 8.255823,83.68159 9.349285,11.70926 26.480999,6.24727 36.579178,-1.43714 11.849623,-6.97635 19.464278,-24.31163 35.197038,-21.9538 16.13986,3.77443 32.7387,5.49075 49.24953,6.30875 11.10039,3.26889 31.59697,5.32644 31.97995,-11.1372 -2.03581,-30.20829 -24.42724,-55.46841 -50.02028,-69.64435 -19.07836,-10.72126 -40.80877,-16.0611 -62.56389,-17.28282 z m -36.5,12.21875 0.147453,-0.0886 -0.147453,0.0886 z m -13.78125,22.28125 0.115868,-0.01 -0.115868,0.01 z"
       id="path5175" />
    <path
       style="fill:#37c837;stroke:#000000;stroke-width:3;stroke-linecap:round;stroke-linejoin:round;stroke-miterlimit:4;stroke-opacity:1;stroke-dasharray:none"
       d="m 95.3125,772.15625 c -22.191697,-0.45064 -41.435302,17.40087 -46.307795,38.44319 -7.094168,22.5564 -5.517801,47.09946 1.177502,69.54832 8.99434,15.11775 29.81037,9.08481 42.00424,1.6644 9.968003,-6.18759 20.139823,-18.38358 33.012513,-13.69142 19.24513,8.84616 40.54087,11.61933 60.39425,18.57062 16.07111,5.56538 25.40329,-11.51871 20.36271,-25.06898 -6.99078,-41.69385 -43.05292,-73.13648 -82.2551,-84.76538 -9.22371,-2.71423 -18.77642,-4.34333 -28.38832,-4.70075 z m -6.96875,0.625 -0.08764,-0.007 0.08764,0.007 z M 66.96875,782.5 66.866039,782.5623 66.96875,782.5 z m -8.78125,9.03125 -0.137184,0.0245 0.137184,-0.0245 z"
       id="path5177" />
    <g
       id="g5209"
       transform="matrix(0.92894604,0,0,1.152504,284.00903,-158.30173)"
       style="stroke-width:0.09664592;stroke-miterlimit:4;stroke-dasharray:none">
      <path
         style="fill:#803300;stroke:#000000;stroke-width:2.89937758;stroke-linecap:round;stroke-linejoin:round;stroke-miterlimit:4;stroke-opacity:1;stroke-dasharray:none"
         d="m 398.15625,818.53125 c -6.03125,-1.6875 -12.0625,-3.375 -18.09375,-5.0625 17.50684,10.51551 27.7421,28.92836 42.51923,42.47402 -17.7565,-4.934 -29.78029,-20.17706 -46.09216,-27.9073 -13.61433,-18.43722 -23.34087,21.82109 -2.38854,15.93381 14.12522,11.5344 31.98369,20.80828 39.81818,38.09172 9.03215,28.16629 -4.49378,57.49811 1.76021,86.01834 0.94535,16.99552 -20.29662,41.75006 -20.21417,46.57516 4.22044,12.6058 21.19889,22.0823 36.14561,22.1165 17.18063,0.5962 39.87393,-11.5832 48.83791,-15.8655 3.67738,-10.9603 3.62783,-41.87042 -9.34643,-56.88541 -10.74762,-13.83257 -17.186,-31.53841 -14.07575,-49.14683 -0.29428,-17.46839 12.55663,-31.8418 29.67477,-34.21101 14.86275,-5.908 42.83673,0.18441 45.30955,-21.17868 -2.55421,-20.13773 -28.65245,-8.53028 -37.21139,1.16623 -5.69379,9.78307 -32.57611,13.74591 -23.6661,-3.37048 6.7721,-12.18186 27.44722,-24.25688 16.20402,-39.8226 -18.89064,-5.25725 -22.39998,20.62439 -27.66069,33.13541 -6.21287,15.82497 -26.7693,7.15633 -30.3664,-6.13635 -4.06818,-12.46553 -9.96092,-31.06501 -25.80433,-30.92097 -2.42625,0.76444 -4.16928,2.84823 -5.34977,4.99644 z m -19.75,-5.65625 0.72922,0.0545 -0.72922,-0.0545 z m -0.25,0.53125 c 1.39406,-0.58151 -1.73953,-0.13798 0,0 z m 3.625,1.0625 -0.41462,0.0789 0.41462,-0.0789 z m 0.46875,0.40625 -0.13469,-0.0412 0.13469,0.0412 z m 1.1875,1.09375 -0.2162,-0.0116 0.2162,0.0116 z m -14.46875,7.15625 -0.15534,-0.14814 0.15534,0.14814 z m 13.75,8.5 0.42418,0.20933 -0.42418,-0.20933 z"
         id="path5211"
         sodipodi:nodetypes="ccccccccccccccccccccccccccccccccccccccccc" />
      <path
         style="fill:none;stroke:#deaa87;stroke-width:2.89937758;stroke-linecap:round;stroke-linejoin:round;stroke-miterlimit:4;stroke-opacity:1;stroke-dasharray:none"
         d="m 401.22149,1027.3338 c 18.08354,-15.6532 31.7877,-39.89424 26.99524,-64.4236 -14.56078,-24.25561 -10.22763,-57.01887 7.35369,-78.54469"
         id="path5213" />
      <path
         style="fill:none;stroke:#deaa87;stroke-width:2.89937758;stroke-linecap:round;stroke-linejoin:round;stroke-miterlimit:4;stroke-opacity:1;stroke-dasharray:none"
         d="m 420.87936,1028.1762 c 17.287,-14.5577 31.21307,-36.57271 28.21163,-59.99511 -10.40881,-18.20652 -22.63424,-40.26271 -13.21853,-61.43403 2.73593,-8.3368 6.99679,-16.11753 12.11236,-23.22401"
         id="path5215" />
      <path
         style="fill:none;stroke:#deaa87;stroke-width:2.89937758;stroke-linecap:round;stroke-linejoin:round;stroke-miterlimit:4;stroke-opacity:1;stroke-dasharray:none"
         d="m 440.103,1028.5105 c 16.70337,-15.4978 29.0327,-38.94783 23.81271,-62.17667 -16.83174,-20.57191 -24.74059,-51.90673 -9.3292,-75.49873 1.3403,-2.61594 2.80897,-5.16553 4.38494,-7.64638"
         id="path5217" />
      <path
         style="fill:#008033;stroke:#000000;stroke-width:2.89937758;stroke-linecap:round;stroke-linejoin:round;stroke-miterlimit:4;stroke-opacity:1;stroke-dasharray:none"
         d="m 418.5,760.875 c -44.27067,-5.64369 -87.45016,35.84682 -83.89079,80.26497 -1.71795,23.72209 3.1129,47.92825 14.07519,69.05552 20.52072,14.37045 50.75744,7.37228 65.93798,-11.58972 18.02007,-16.80604 45.7719,-18.04542 67.99964,-9.8447 15.79408,3.12076 31.7112,6.30017 47.87282,6.41784 12.20832,6.50865 28.88352,4.24998 38.14273,-6.3 7.29011,-24.78648 -4.67972,-50.83159 -21.38833,-68.93639 C 515.18553,783.11885 466.5337,763.79616 418.5,760.875 z m -55.0625,16.25 -0.32425,-0.12493 0.32425,0.12493 z m 65.46875,-14.75 c 3.74702,0.4444 -2.06018,-2.91018 0,0 z m -42.59375,2.4375 -0.14732,0.0346 0.14732,-0.0346 z m 66.84375,1.28125 0.23919,-0.0449 -0.23919,0.0449 z m -108.71875,34.21875 0.17157,-0.0942 -0.17157,0.0942 z m 196.125,11.9375 0.0554,0.027 -0.0554,-0.027 z m 6.40625,6.9375 0.32061,-0.10213 -0.32061,0.10213 z m 15.09375,22.75 c -3.14528,2.77061 3.05416,-0.7614 0,0 z m 1.625,4.375 -0.0949,-0.007 0.0949,0.007 z m 3.28125,6.28125 0.1014,0.008 -0.1014,-0.008 z"
         id="path5219" />
      <path
         style="fill:#00aa44;stroke:#000000;stroke-width:2.89937758;stroke-linecap:round;stroke-linejoin:round;stroke-miterlimit:4;stroke-opacity:1;stroke-dasharray:none"
         d="m 399.53125,785.375 c -1.32722,6.38664 2.11969,-2.66914 0,0 z m 0.0312,0.34375 c -33.32949,0.13631 -61.62731,34.19117 -55.95851,66.97131 0.60739,17.79855 6.31919,35.44838 16.5529,50.0501 16.80739,10.28134 40.99602,4.38291 51.66525,-12.03768 18.54874,-15.07183 44.59123,-13.75384 66.25226,-7.33741 16.44572,2.03421 33.02728,2.71263 49.58771,2.845 9.80905,-16.96696 3.61976,-39.94801 -11.23673,-51.92275 C 487.47121,801.12337 442.4021,787.2107 399.56245,785.71875 z m 20.0625,1.5 -0.0578,-0.0531 0.0578,0.0531 z m -61.6562,17.65625 -0.37896,-0.22656 0.37896,0.22656 z m 7.5625,-7.59375 -0.12621,-0.0527 0.12621,0.0527 z m 3.875,-1.84375 -0.41577,-0.26274 0.41577,0.26274 z m 2.21875,-1.15625 -0.25857,0.43022 0.25857,-0.43022 z m 1.40625,-1.09375 -0.0274,0.14454 0.0274,-0.14454 z m 19.65625,-5 -0.36199,-0.0943 0.36199,0.0943 z m 10.0625,-1.375 0.21117,-0.28054 -0.21117,0.28054 z m 8.75,-0.0312 c 4.82413,1.45723 -2.43692,-2.5719 0,0 z m -8.1875,0.34375 -0.12387,0.304 0.12387,-0.304 z m 12.8125,0.4062 -0.21183,6.8e-4 0.21183,-6.8e-4 z m -0.46875,0.1875 0.0439,0.13947 -0.0439,-0.13947 z m -23.75,0.34375 -0.0907,-0.18166 0.0907,0.18166 z m 0,0 c 1.63645,2.66121 1.78908,-2.06792 0,0 z m 30.90625,0 0.14428,-0.0377 -0.14428,0.0377 z m -33.0625,0.0937 0.1083,-0.0145 -0.1083,0.0145 z m 1.71875,0.0312 0.12182,-0.004 -0.12182,0.004 z m -7.0625,0.875 0.0388,-0.0667 -0.0388,0.0667 z m 0.34375,0.40625 c 5.33894,-0.40289 -2.87961,1.6391 0,0 z m 46.1875,0.15625 0.19132,-0.0852 -0.19132,0.0852 z m 0.1875,0.0312 -0.0223,0.25072 0.0223,-0.25072 z m -47.34375,0.125 -0.33428,0.0545 0.33428,-0.0545 z m -0.46875,0.375 c -2.7415,-0.68637 2.28885,-1.06268 0,0 z m -5.09375,0.75 0.0568,0.12178 -0.0568,-0.12178 z m 0.53125,-0.125 0.0932,-0.0911 -0.0932,0.0911 z m -0.0625,0.0624 0.0306,0.0816 -0.0306,-0.0816 z m -4.5625,1.53125 0.28782,-0.0383 -0.28782,0.0383 z m -2.84375,2.21875 0.12447,-0.11411 -0.12447,0.11411 z m 1.3125,0.15625 0.21159,-0.1075 -0.21159,0.1075 z m -7.03125,3.4375 -0.49781,-0.25456 -4e-5,-2e-5 -7e-4,-3.6e-4 0.49781,0.25456 4e-5,2e-5 7e-4,3.6e-4 z m 162.3125,52.9065 0.0953,0.096 -0.0953,-0.096 z"
         id="path5221" />
      <path
         style="fill:#37c837;stroke:#000000;stroke-width:2.89937758;stroke-linecap:round;stroke-linejoin:round;stroke-miterlimit:4;stroke-opacity:1;stroke-dasharray:none"
         d="m 405.71875,773.9375 c -33.15729,0.59639 -60.13781,36.38158 -51.82592,68.43169 0.553,16.58512 5.5936,33.28548 15.74211,46.55778 18.0839,8.5847 41.25029,2.44094 53.7552,-12.88878 16.88329,-10.1502 38.19881,-8.45278 56.00562,-1.74433 17.95232,1.95384 35.80091,9.85233 54.01997,5.5456 13.62711,-11.08963 10.79881,-33.44943 -1.61769,-44.32676 -28.18038,-40.19433 -78.14838,-60.3999 -126.07929,-61.5752 z m -21,4.5625 c -0.76245,4.17767 3.39613,-1.96692 0,0 z m 0.25,0.0625 0.0799,-0.28161 -0.0799,0.28161 z m 0.5,-0.0625 -0.12385,-0.27287 0.12385,0.27287 z m 16.3125,-4.125 -0.0251,0.0279 0.0251,-0.0279 z m 12.9375,0.53125 -0.0898,0.0417 0.0898,-0.0417 z m -26.875,2.5 -0.24238,-0.16162 0.24238,0.16162 z M 374.875,784.75 l 0.10289,-0.006 -0.10289,0.006 z m -4.59375,3.34375 -0.25453,-0.16603 0.25453,0.16603 z m -9.21875,10.6875 0.26095,0.19046 -0.26095,-0.19046 z m 0.875,1.125 c -3.10956,0.66467 1.65778,-2.46274 0,0 z m -1.40625,3.125 c -2.54312,-3.84995 1.82302,-1.59934 0,0 z m -5.15625,13.6875 0.002,-0.24429 -0.002,0.24429 z m -0.25,0.25 0.10816,-0.36334 -0.10816,0.36334 z"
         id="path5223" />
    </g>
    <path
       id="path5225"
       d="m 1045.3438,814.5625 c -5.8438,-2.08333 -11.6875,-4.16667 -17.5313,-6.25 0.738,1.48988 2.8169,1.54998 3.5474,3.05371 1.9326,1.66356 4.5433,2.42062 6.2964,4.29004 0.9718,1.55197 2.5532,2.64414 3.5429,4.21185 3.7437,4.15954 6.9836,8.7451 10.4807,13.11335 6.5736,8.4579 13.1355,16.92484 19.6951,25.39355 -12.595,-9.61639 -25.284,-19.1157 -37.7748,-28.86475 -1.7773,-1.63818 -3.9553,-2.74112 -5.6314,-4.479 -2.1907,-1.79814 -5.0653,-2.55952 -7.0313,-4.65625 -1.4199,-1.13223 -3.0576,-1.93594 -4.7237,-2.58765 -1.3017,-0.79316 -2.205,-2.12947 -3.7143,-2.53765 -1.1684,-0.65257 -2.0496,-1.6843 -2.9683,-2.59345 -0.8991,-0.2588 -1.9294,-0.33601 -2.5625,-1.0625 -1.1344,-0.0352 0.4776,1.33373 0.6885,1.78277 1.0086,1.8877 2.0462,3.7484 3.3468,5.44937 1.4351,2.19504 2.8185,4.42307 4.2147,6.64286 -6.2708,1.33333 -12.5416,2.66667 -18.81245,4 6.05205,0.54167 12.10415,1.08333 18.15625,1.625 14.1979,12.76042 28.3958,25.52083 42.5938,38.28125 4.5151,10.23989 4.4949,21.66073 4.6501,32.64214 -0.052,14.84115 -1.8293,29.59714 -3.4626,44.32661 4.8696,16.99661 1.2408,36.04182 -9.1116,50.31445 -3.3248,4.6865 -7.0894,9.0807 -11.3572,12.9356 2.6833,5.1921 7.007,9.2739 11.1685,13.277 8.4433,7.3286 19.7972,11.4931 31.014,10.4318 12.3864,-0.7519 24.0217,-6.049 34.3233,-12.6916 2.896,-1.9558 5.6898,-4.0624 8.4004,-6.2672 -0.7845,-16.1247 -2.3253,-32.50926 -8.1178,-47.70923 -1.9523,-5.9097 -6.3556,-10.70655 -11.5384,-14.00957 -4.5372,-4.64557 -5.432,-11.43223 -5.9664,-17.61447 -1.3759,-16.7086 0.9281,-33.43846 3.7164,-49.88553 1.2062,-1.74239 3.6384,-1.52268 5.3825,-2.41489 17.8604,-5.87997 35.7711,-11.6051 53.68,-17.33511 4.0104,-3.66667 8.0208,-7.33333 12.0312,-11 -4.0104,-0.65625 -8.0208,-1.3125 -12.0312,-1.96875 2.9167,-2.66667 5.8333,-5.33333 8.75,-8 -4,-1.02083 -8,-2.04167 -12,-3.0625 -19.3229,10.67708 -38.6458,21.35417 -57.9688,32.03125 10.5209,-18.55208 21.0417,-37.10417 31.5625,-55.65625 -0.052,-3.34375 -0.1041,-6.6875 -0.1562,-10.03125 -3.2083,2.21875 -6.4167,4.4375 -9.625,6.65625 -3.7396,-3.02083 -7.4792,-6.04167 -11.2188,-9.0625 1.2605,3.65625 2.5209,7.3125 3.7813,10.96875 -8.7917,16.70833 -17.5833,33.41667 -26.375,50.125 -7.6146,-15.65625 -15.2292,-31.3125 -22.8437,-46.96875 0.3645,-4.28125 0.7291,-8.5625 1.0937,-12.84375 -3.3125,3.6875 -6.625,7.375 -9.9375,11.0625 -1.5312,-5.07292 -3.0625,-10.14583 -4.5937,-15.21875 -1.6875,4.05208 -3.375,8.10417 -5.0625,12.15625 z m -40.3751,-4.28125 c 0.034,1.04003 0.863,-0.56662 0,0 z"
       style="fill:#502d16;stroke:#000000;stroke-width:3;stroke-linecap:round;stroke-linejoin:round;stroke-miterlimit:4;stroke-opacity:1;stroke-dasharray:none" />
    <path
       id="path5227"
       d="m 1048,1023.3622 c 0,0 37,-38.00002 21,-72.00002 -16,-34 9,-71 9,-71"
       style="fill:none;stroke:#a05a2c;stroke-width:3;stroke-linecap:round;stroke-linejoin:round;stroke-miterlimit:4;stroke-opacity:1;stroke-dasharray:none" />
    <path
       style="fill:none;stroke:#a05a2c;stroke-width:3;stroke-linecap:round;stroke-linejoin:round;stroke-miterlimit:4;stroke-opacity:1;stroke-dasharray:none"
       d="m 1065.1166,1024.247 c 0,0 34.2074,-40.53211 15.8327,-73.30974 -18.3746,-32.77763 3.9341,-71.45994 3.9341,-71.45994"
       id="path5229" />
    <path
       id="path5231"
       d="m 1081.9152,1024.5743 c 0,0 32.6189,-41.82106 12.994,-73.86577 -19.6249,-32.0447 1.1756,-71.55849 1.1756,-71.55849"
       style="fill:none;stroke:#a05a2c;stroke-width:3;stroke-linecap:round;stroke-linejoin:round;stroke-miterlimit:4;stroke-opacity:1;stroke-dasharray:none" />
    <path
       style="fill:#ffd5e5;stroke:#000000;stroke-width:3;stroke-linecap:round;stroke-linejoin:round;stroke-miterlimit:4;stroke-opacity:1;stroke-dasharray:none"
       d="m 1086,879.36218 c 0,0 -152,76 -115,-16 37,-92 80,-104 80,-104 0,0 257,76 97,136 l -1,3 c -29,-40 -61,-19 -61,-19 z"
       id="path5253" />
    <path
       id="path5255"
       d="m 1086.5977,868.94218 c 0,0 -132.70839,64.37834 -100.40437,-13.55333 32.30407,-77.93167 69.84657,-88.09667 69.84657,-88.09667 0,0 224.3819,64.37833 84.6889,115.20334 l -0.8731,2.54125 c -25.3194,-33.88334 -53.258,-16.09459 -53.258,-16.09459 z"
       style="fill:url(#linearGradient5924);fill-opacity:1;stroke:#000000;stroke-width:3;stroke-linecap:round;stroke-linejoin:round;stroke-miterlimit:4;stroke-opacity:1;stroke-dasharray:none" />
    <path
       id="path5775"
       d="m 1083.2896,857.01859 c 0,0 -99.96581,62.26821 -80.143,-4.21605 19.8229,-66.48425 48.6857,-77.46552 48.6857,-77.46552 0,0 181.5719,37.52497 75.1173,89.10395 l -0.5042,2.15548 c -22.4173,-26.17858 -43.1558,-9.57786 -43.1558,-9.57786 z"
       style="fill:#fff2f7;fill-opacity:1;stroke:#000000;stroke-width:3;stroke-linecap:round;stroke-linejoin:round;stroke-miterlimit:4;stroke-opacity:1;stroke-dasharray:none" />
    <path
       style="fill:url(#radialGradient5920);fill-opacity:1;stroke:#000000;stroke-width:3;stroke-linecap:round;stroke-linejoin:round;stroke-miterlimit:4;stroke-opacity:1;stroke-dasharray:none"
       d="m 402,1036.3622 0,-189.00002 -29.5,-29.5 c 0,0 45.75,-35.75 81.5,0 l -1,2.5 -29,26 0,190.00002 -22,0 z"
       id="path5789"
       sodipodi:nodetypes="cccc" />
    <path
       style="fill:#ffff00;stroke:#000000;stroke-width:3;stroke-linecap:round;stroke-linejoin:round;stroke-miterlimit:4;stroke-opacity:1;stroke-dasharray:none"
       d="m 404.02597,843.33691 14.36891,0 27.07985,-24.46328 c 0,0 -38.40918,-20.7189 -61.34416,0 l -1.1053,-0.49925 21.0007,24.96253 z"
       id="path5799" />
    <path
       style="fill:#502d16;stroke:#000000;stroke-width:3;stroke-linecap:round;stroke-linejoin:round;stroke-miterlimit:4;stroke-opacity:1;stroke-dasharray:none"
       d="m 2111.3438,814.5625 c -5.8438,-2.08333 -11.6875,-4.16667 -17.5313,-6.25 0.738,1.48988 2.8169,1.54998 3.5474,3.05371 1.9326,1.66356 4.5433,2.42062 6.2964,4.29004 0.9718,1.55197 2.5532,2.64414 3.5429,4.21185 3.7437,4.15954 6.9836,8.7451 10.4807,13.11335 6.5736,8.4579 13.1355,16.92484 19.6951,25.39355 -12.595,-9.61639 -25.284,-19.1157 -37.7748,-28.86475 -1.7773,-1.63818 -3.9553,-2.74112 -5.6314,-4.479 -2.1907,-1.79814 -5.0653,-2.55952 -7.0313,-4.65625 -1.4199,-1.13223 -3.0576,-1.93594 -4.7237,-2.58765 -1.3017,-0.79316 -2.205,-2.12947 -3.7143,-2.53765 -1.1684,-0.65257 -2.0496,-1.6843 -2.9682,-2.59345 -0.8992,-0.2588 -1.9295,-0.33601 -2.5625,-1.0625 -1.1345,-0.0352 0.4775,1.33373 0.6884,1.78277 1.0086,1.8877 2.0462,3.7484 3.3468,5.44937 1.4351,2.19504 2.8185,4.42307 4.2148,6.64286 -6.2709,1.33333 -12.5417,2.66667 -18.8125,4 6.052,0.54167 12.1041,1.08333 18.1562,1.625 14.1979,12.76042 28.3958,25.52083 42.5938,38.28125 4.5151,10.23989 4.4949,21.66073 4.6501,32.64214 -0.052,14.84115 -1.8293,29.59714 -3.4626,44.32661 4.8696,16.99661 1.2408,36.04182 -9.1116,50.31445 -3.3248,4.6865 -7.0894,9.0807 -11.3572,12.9356 2.6833,5.1921 7.007,9.2739 11.1685,13.277 8.4433,7.3286 19.7972,11.4931 31.014,10.4318 12.3864,-0.7519 24.0217,-6.049 34.3233,-12.6916 2.896,-1.9558 5.6898,-4.0624 8.4004,-6.2672 -0.7845,-16.1247 -2.3253,-32.50926 -8.1178,-47.70923 -1.9523,-5.9097 -6.3556,-10.70655 -11.5384,-14.00957 -4.5372,-4.64557 -5.432,-11.43223 -5.9664,-17.61447 -1.3759,-16.7086 0.9281,-33.43846 3.7164,-49.88553 1.2062,-1.74239 3.6384,-1.52268 5.3825,-2.41489 17.8604,-5.87997 35.7711,-11.6051 53.68,-17.33511 4.0104,-3.66667 8.0208,-7.33333 12.0312,-11 -4.0104,-0.65625 -8.0208,-1.3125 -12.0312,-1.96875 2.9167,-2.66667 5.8333,-5.33333 8.75,-8 -4,-1.02083 -8,-2.04167 -12,-3.0625 -19.3229,10.67708 -38.6458,21.35417 -57.9688,32.03125 10.5209,-18.55208 21.0417,-37.10417 31.5625,-55.65625 -0.052,-3.34375 -0.1041,-6.6875 -0.1562,-10.03125 -3.2083,2.21875 -6.4167,4.4375 -9.625,6.65625 -3.7396,-3.02083 -7.4792,-6.04167 -11.2188,-9.0625 1.2605,3.65625 2.5209,7.3125 3.7813,10.96875 -8.7917,16.70833 -17.5833,33.41667 -26.375,50.125 -7.6146,-15.65625 -15.2292,-31.3125 -22.8437,-46.96875 0.3645,-4.28125 0.7291,-8.5625 1.0937,-12.84375 -3.3125,3.6875 -6.625,7.375 -9.9375,11.0625 -1.5312,-5.07292 -3.0625,-10.14583 -4.5937,-15.21875 -1.6875,4.05208 -3.375,8.10417 -5.0625,12.15625 z m -40.375,-4.28125 c 0.034,1.04003 0.8629,-0.56662 0,0 z"
       id="path5818" />
    <path
       style="fill:none;stroke:#a05a2c;stroke-width:3;stroke-linecap:round;stroke-linejoin:round;stroke-miterlimit:4;stroke-opacity:1;stroke-dasharray:none"
       d="m 2114,1023.3622 c 0,0 37,-38.00002 21,-72.00002 -16,-34 9,-71 9,-71"
       id="path5820" />
    <path
       id="path5822"
       d="m 2131.1166,1024.247 c 0,0 34.2074,-40.53211 15.8327,-73.30974 -18.3746,-32.77763 3.9341,-71.45994 3.9341,-71.45994"
       style="fill:none;stroke:#a05a2c;stroke-width:3;stroke-linecap:round;stroke-linejoin:round;stroke-miterlimit:4;stroke-opacity:1;stroke-dasharray:none" />
    <path
       style="fill:none;stroke:#a05a2c;stroke-width:3;stroke-linecap:round;stroke-linejoin:round;stroke-miterlimit:4;stroke-opacity:1;stroke-dasharray:none"
       d="m 2147.9152,1024.5743 c 0,0 32.6189,-41.82106 12.994,-73.86577 -19.6249,-32.0447 1.1756,-71.55849 1.1756,-71.55849"
       id="path5824" />
    <path
       id="path5826"
       d="m 2152,879.36218 c 0,0 -152,76 -115,-16 37,-92 80,-104 80,-104 0,0 257,76 97,136 l -1,3 c -29,-40 -61,-19 -61,-19 z"
       style="fill:#ffd5e5;stroke:#000000;stroke-width:3;stroke-linecap:round;stroke-linejoin:round;stroke-miterlimit:4;stroke-opacity:1;stroke-dasharray:none" />
    <path
       style="fill:url(#linearGradient5911);fill-opacity:1;stroke:#000000;stroke-width:3;stroke-linecap:round;stroke-linejoin:round;stroke-miterlimit:4;stroke-opacity:1;stroke-dasharray:none"
       d="m 2152.5977,868.94218 c 0,0 -132.7084,64.37834 -100.4044,-13.55333 32.3041,-77.93167 69.8466,-88.09667 69.8466,-88.09667 0,0 224.3819,64.37833 84.6889,115.20334 l -0.8731,2.54125 c -25.3194,-33.88334 -53.258,-16.09459 -53.258,-16.09459 z"
       id="path5828" />
    <path
       style="fill:#fff2f7;fill-opacity:1;stroke:#000000;stroke-width:3;stroke-linecap:round;stroke-linejoin:round;stroke-miterlimit:4;stroke-opacity:1;stroke-dasharray:none"
       d="m 2149.2896,857.01859 c 0,0 -99.9658,62.26821 -80.143,-4.21605 19.8229,-66.48425 48.6857,-77.46552 48.6857,-77.46552 0,0 181.5719,37.52497 75.1173,89.10395 l -0.5042,2.15548 c -22.4173,-26.17858 -43.1558,-9.57786 -43.1558,-9.57786 z"
       id="path5830" />
    <path
       id="path5836"
       d="m 1644.3438,818.5625 c -5.8438,-2.08333 -11.6875,-4.16667 -17.5313,-6.25 0.738,1.48988 2.8169,1.54998 3.5474,3.05371 1.9326,1.66356 4.5433,2.42062 6.2964,4.29004 0.9718,1.55197 2.5532,2.64414 3.5429,4.21185 3.7437,4.15954 6.9836,8.7451 10.4807,13.11335 6.5736,8.4579 13.1355,16.92484 19.6951,25.39355 -12.595,-9.61639 -25.284,-19.1157 -37.7748,-28.86475 -1.7773,-1.63818 -3.9553,-2.74112 -5.6314,-4.479 -2.1907,-1.79814 -5.0653,-2.55952 -7.0313,-4.65625 -1.4199,-1.13223 -3.0576,-1.93594 -4.7237,-2.58765 -1.3017,-0.79316 -2.205,-2.12947 -3.7143,-2.53765 -1.1684,-0.65257 -2.0496,-1.6843 -2.9682,-2.59345 -0.8992,-0.2588 -1.9295,-0.33601 -2.5625,-1.0625 -1.1345,-0.0352 0.4775,1.33373 0.6884,1.78277 1.0086,1.8877 2.0462,3.7484 3.3468,5.44937 1.4351,2.19504 2.8186,4.42307 4.2148,6.64286 -6.2709,1.33333 -12.5417,2.66667 -18.8125,4 6.052,0.54167 12.1041,1.08333 18.1562,1.625 14.1979,12.76042 28.3958,25.52083 42.5938,38.28125 4.5151,10.23989 4.4949,21.66073 4.6501,32.64214 -0.052,14.84115 -1.8293,29.59714 -3.4626,44.32661 4.8696,16.99661 1.2408,36.04182 -9.1116,50.31445 -3.3248,4.6865 -7.0894,9.0807 -11.3572,12.9356 2.6834,5.1921 7.007,9.2739 11.1685,13.277 8.4433,7.3286 19.7972,11.4931 31.014,10.4318 12.3864,-0.7519 24.0217,-6.049 34.3233,-12.6916 2.896,-1.9558 5.6898,-4.0624 8.4005,-6.2672 -0.7846,-16.1247 -2.3254,-32.50926 -8.1179,-47.70923 -1.9523,-5.9097 -6.3556,-10.70655 -11.5384,-14.00957 -4.5372,-4.64557 -5.4319,-11.43223 -5.9664,-17.61447 -1.3759,-16.7086 0.9281,-33.43846 3.7164,-49.88553 1.2062,-1.74239 3.6384,-1.52268 5.3825,-2.41489 17.8604,-5.87997 35.7711,-11.6051 53.68,-17.33511 4.0104,-3.66667 8.0208,-7.33333 12.0313,-11 -4.0105,-0.65625 -8.0209,-1.3125 -12.0313,-1.96875 2.9167,-2.66667 5.8333,-5.33333 8.75,-8 -4,-1.02083 -8,-2.04167 -12,-3.0625 -19.3229,10.67708 -38.6458,21.35417 -57.9687,32.03125 10.5208,-18.55208 21.0416,-37.10417 31.5625,-55.65625 -0.052,-3.34375 -0.1042,-6.6875 -0.1563,-10.03125 -3.2083,2.21875 -6.4167,4.4375 -9.625,6.65625 -3.7396,-3.02083 -7.4792,-6.04167 -11.2187,-9.0625 1.2604,3.65625 2.5208,7.3125 3.7812,10.96875 -8.7917,16.70833 -17.5833,33.41667 -26.375,50.125 -7.6146,-15.65625 -15.2292,-31.3125 -22.8437,-46.96875 0.3645,-4.28125 0.7291,-8.5625 1.0937,-12.84375 -3.3125,3.6875 -6.625,7.375 -9.9375,11.0625 -1.5312,-5.07292 -3.0625,-10.14583 -4.5937,-15.21875 -1.6875,4.05208 -3.375,8.10417 -5.0625,12.15625 z m -40.375,-4.28125 c 0.034,1.04003 0.8629,-0.56662 0,0 z"
       style="fill:#803300;stroke:#000000;stroke-width:3;stroke-linecap:round;stroke-linejoin:round;stroke-miterlimit:4;stroke-opacity:1;stroke-dasharray:none" />
    <path
       id="path5838"
       d="m 1647,1027.3622 c 0,0 37,-38.00002 21,-72.00002 -16,-34 9,-71 9,-71"
       style="fill:none;stroke:#deaa87;stroke-width:3;stroke-linecap:round;stroke-linejoin:round;stroke-miterlimit:4;stroke-opacity:1;stroke-dasharray:none" />
    <path
       style="fill:none;stroke:#deaa87;stroke-width:3;stroke-linecap:round;stroke-linejoin:round;stroke-miterlimit:4;stroke-opacity:1;stroke-dasharray:none"
       d="m 1664.1166,1028.247 c 0,0 34.2074,-40.53211 15.8327,-73.30974 -18.3746,-32.77763 3.9341,-71.45994 3.9341,-71.45994"
       id="path5840" />
    <path
       id="path5842"
       d="m 1680.9152,1028.5743 c 0,0 32.6189,-41.82106 12.994,-73.86577 -19.6249,-32.0447 1.1756,-71.55849 1.1756,-71.55849"
       style="fill:none;stroke:#deaa87;stroke-width:3;stroke-linecap:round;stroke-linejoin:round;stroke-miterlimit:4;stroke-opacity:1;stroke-dasharray:none" />
    <path
       style="fill:#008033;stroke:#000000;stroke-width:3;stroke-linecap:round;stroke-linejoin:round;stroke-miterlimit:4;stroke-opacity:1;stroke-dasharray:none"
       d="m 1650.875,762.875 c -34.6305,0.58146 -64.2206,34.15787 -61.4786,68.48011 -2.483,28.80688 3.8541,58.18859 17.345,83.71162 14.2683,12.28527 37.7326,7.5494 48.7755,-6.81128 11.8107,-7.19812 18.0826,-23.66201 33.443,-24.46007 24.2129,-1.0375 47.3682,9.69329 71.6282,7.60072 10.9916,1.9314 23.7964,4.75407 33.4335,-2.69961 9.8672,-12.88054 4.894,-30.76762 -3.0167,-43.29703 -24.3254,-52.52463 -82.9259,-85.1011 -140.1299,-82.52446 z m -34.125,12.25 c 0.3493,3.17723 -1.8916,-2.4e-4 -0.5373,-0.63013 l 0.5373,0.63013 z m -0.125,0.21875 -0.194,0.0364 0.194,-0.0364 z m -13.75,10.6875 0.055,-0.003 -0.055,0.003 z m 0.9688,0.5 c -6.2395,1.37465 2.3246,-2.10516 0,0 z m -6.9375,10.71875 0.034,-0.0755 -0.034,0.0755 z m -1.5313,3.3125 -0.022,-0.0472 0.022,0.0472 z m -1.4062,3.84375 0.02,0.0953 -0.02,-0.0953 z m -4.0313,12.96875 c 0.9685,2.68944 2.1328,-1.27525 0,0 z"
       id="path5844" />
    <path
       style="fill:#00aa44;stroke:#000000;stroke-width:3;stroke-linecap:round;stroke-linejoin:round;stroke-miterlimit:4;stroke-opacity:1;stroke-dasharray:none"
       d="m 1650.3125,786.65625 c -27.1765,-2.36961 -53.2907,21.98888 -52.8252,49.26247 -2.5168,22.52436 2.215,45.61485 12.4223,65.77521 14.3834,11.89946 38.5228,5.62181 46.7039,-10.72684 10.9111,-12.80917 30.1856,-14.36633 45.2432,-8.98514 16.5614,2.52349 33.2913,4.97135 50.0911,4.06406 11.6074,-5.4605 14.7287,-22.40095 6.7795,-32.16138 -17.9854,-41.91536 -64.0817,-66.45851 -108.4148,-67.22838 z m -36.5,12.21875 c 3.4356,-0.0733 -1.4655,-3.14292 0,0 z m -13.7812,22.28125 0.1157,-0.01 -0.1157,0.01 z"
       id="path5846" />
    <path
       style="fill:#37c837;stroke:#000000;stroke-width:3;stroke-linecap:round;stroke-linejoin:round;stroke-miterlimit:4;stroke-opacity:1;stroke-dasharray:none"
       d="m 1655.3125,772.15625 c -24.6721,0.60996 -46.7451,22.02726 -48.4078,46.5951 -4.3689,21.10365 -3.1975,43.58923 4.8457,63.69126 14.0999,11.61749 36.7376,7.32099 47.8034,-6.46918 13.1392,-11.13781 32.5845,-7.89994 46.5699,-0.16333 13.3813,4.12518 27.3501,6.56735 40.3111,11.86154 11.2778,1.07991 22.9151,-10.36939 19.519,-21.81035 -6.5047,-53.34038 -58.7617,-92.25105 -110.6413,-93.70504 z m -6.9687,0.625 -0.088,-0.007 0.088,0.007 z m -21.375,9.71875 -0.1029,0.0623 0.1029,-0.0623 z m -8.7813,9.03125 -0.1372,0.0245 0.1372,-0.0245 z"
       id="path5848" />
    <path
       sodipodi:nodetypes="cccc"
       id="path5852"
       d="m 818,1036.3622 0,-189.00002 -29.5,-29.5 c 0,0 45.75,-35.75 81.5,0 l -1,2.5 -29,26 0,190.00002 -22,0 z"
       style="fill:url(#radialGradient5900);fill-opacity:1;stroke:#000000;stroke-width:3;stroke-linecap:round;stroke-linejoin:round;stroke-miterlimit:4;stroke-opacity:1;stroke-dasharray:none" />
    <path
       id="path5854"
       d="m 820.02597,843.33691 14.36891,0 27.07985,-24.46328 c 0,0 -38.40918,-20.7189 -61.34416,0 l -1.1053,-0.49925 21.0007,24.96253 z"
       style="fill:#ffff00;stroke:#000000;stroke-width:3;stroke-linecap:round;stroke-linejoin:round;stroke-miterlimit:4;stroke-opacity:1;stroke-dasharray:none" />
    <path
       sodipodi:nodetypes="cccc"
       id="path5868"
       d="m 1298,1036.3622 0,-189.00002 -29.5,-29.5 c 0,0 45.75,-35.75 81.5,0 l -1,2.5 -29,26 0,190.00002 -22,0 z"
       style="fill:url(#radialGradient5896);fill-opacity:1;stroke:#000000;stroke-width:3;stroke-linecap:round;stroke-linejoin:round;stroke-miterlimit:4;stroke-opacity:1;stroke-dasharray:none" />
    <path
       id="path5870"
       d="m 1300.026,843.33691 14.3689,0 27.0798,-24.46328 c 0,0 -38.4091,-20.7189 -61.3441,0 l -1.1053,-0.49925 21.0007,24.96253 z"
       style="fill:#ffff00;stroke:#000000;stroke-width:3;stroke-linecap:round;stroke-linejoin:round;stroke-miterlimit:4;stroke-opacity:1;stroke-dasharray:none" />
    <path
       style="fill:url(#radialGradient5892);fill-opacity:1;stroke:#000000;stroke-width:3;stroke-linecap:round;stroke-linejoin:round;stroke-miterlimit:4;stroke-opacity:1;stroke-dasharray:none"
       d="m 1938,1036.3622 0,-189.00002 -29.5,-29.5 c 0,0 45.75,-35.75 81.5,0 l -1,2.5 -29,26 0,190.00002 -22,0 z"
       id="path5884"
       sodipodi:nodetypes="cccc" />
    <path
       style="fill:#ffff00;stroke:#000000;stroke-width:3;stroke-linecap:round;stroke-linejoin:round;stroke-miterlimit:4;stroke-opacity:1;stroke-dasharray:none"
       d="m 1940.026,843.33691 14.3689,0 27.0798,-24.46328 c 0,0 -38.4091,-20.7189 -61.3441,0 l -1.1053,-0.49925 21.0007,24.96253 z"
       id="path5886" />
  </g>
</svg>
